<?xml version="1.0" encoding="UTF-8"?>
<!DOCTYPE svg PUBLIC "-//W3C//DTD SVG 1.1//EN" "http://www.w3.org/Graphics/SVG/1.1/DTD/svg11.dtd">
<!-- Creator: CorelDRAW -->
<svg xmlns="http://www.w3.org/2000/svg" xml:space="preserve" width="210mm" height="297mm" version="1.1" style="shape-rendering:geometricPrecision; text-rendering:geometricPrecision; image-rendering:optimizeQuality; fill-rule:evenodd; clip-rule:evenodd"
viewBox="0 0 21000 29700"
 xmlns:xlink="http://www.w3.org/1999/xlink"
 xmlns:xodm="http://www.corel.com/coreldraw/odm/2003">
 <defs>
  <style type="text/css">
   <![CDATA[
    .fil0 {fill:#111111}
   ]]>
  </style>
 </defs>
 <g id="Camada_x0020_1">
  <metadata id="CorelCorpID_0Corel-Layer"/>
  <g id="_1781431404992">
   <path class="fil0" d="M8305.47 21864.36c-148.06,0 -283.43,-34.92 -410.16,-96.82 -99.37,-48.55 -211.5,-123.86 -287.73,-199.76 -163.77,-163.07 -257.59,-415.23 -257.59,-736.9l0 -10880.79c0,-565.52 131.57,-1061.43 617.58,-1332.38 232.05,-129.37 479.59,-143.86 804.21,-170.78 819.6,-67.95 1791.89,-218.39 2633.59,-291.35 291.94,-25.31 589.81,-71.49 878.57,-96.41 627.3,-54.13 1302.88,-280.56 1727.04,416.83 189.63,311.81 144.38,665.19 144.38,1142.59l0.7 10314.67c-15.57,530.58 -318.83,967.81 -780.29,1151.51 -155.45,61.88 -363.98,87.29 -549.77,113.22 -1117.92,156.07 -2250.78,354.01 -3371.2,509.22 -189.45,26.24 -365.64,54.99 -561.1,82.39 -179.21,25.12 -384.66,74.76 -588.23,74.76zm6844.37 -4250.92c-346.2,0 -682.49,-306.74 -682.49,-448.49l0 -1832.96c0,-175.66 592.75,-701.99 994.49,-701.99 749.47,0 1440.46,1403.1 624.39,2476.85 -175.3,230.65 -533.74,506.59 -936.39,506.59zm-10549.3 -2144.96c0,-519.32 41.57,-870.75 342.8,-1314.67 180.63,-266.18 441.51,-508.88 726.63,-657.84 255.41,-133.44 492.93,-191.94 822.04,-191.94l0 2788.44c0,56.8 -103.81,152.85 -141.16,190.34 -72.06,72.31 -101.99,88.17 -186.33,145.16 -304.92,206.08 -938.4,288.91 -1216.02,-59.47 -195.42,-245.23 -347.96,-578.74 -347.96,-900.02zm14059.24 253.5c40.96,175.8 19.49,435.34 19.49,623.99 0,129.14 -135.15,125.39 -368.08,197.4 -498.98,154.25 -324.47,86.79 -528.88,602.1 -225.45,568.34 -169.97,421.49 150.1,941.96 20.42,33.21 36.01,50.81 46.18,73.16 29.87,65.66 7.98,86.31 -31.34,143.73l-281.95 401.1c-209.62,-4.67 -506.42,-350.99 -682.49,-350.99 -82.36,0 -324.85,177.84 -425.12,237.87 -173.22,103.72 -305.68,129.81 -341.73,321.26 -18.58,98.71 -43.24,520.24 -81.3,581.68 -39.33,63.49 -424.15,143.66 -536.32,146.17 -118.56,-247.08 -90.89,-665.59 -305.53,-747.46 -114.47,-43.66 -200.08,-14.76 -433.1,-93.39 -124.83,-42.13 -259.65,-103.22 -392.36,-134.14l0 -1013.98c274.24,183.64 381.74,351.07 875.77,391.71 1514.92,124.63 2389.27,-1762.65 1596.84,-2942.31 -31.78,-47.31 -51.71,-80.08 -85.4,-129.1 -41.48,-60.36 -55.1,-64.22 -100.86,-113.64 -49.98,-53.98 -34.44,-51.3 -93.91,-101.08 -305.94,-256.06 -559.18,-440.02 -1061.45,-440.02 -342.62,0 -670.52,132.47 -908.46,320.03 -73.6,58 -153.22,140.56 -222.53,186.97l0 -1150.48c272.46,0 441.57,-146.23 740.87,-175.62 91.11,-8.95 171.64,-14.81 230.1,-62.39 99,-80.57 131.2,-261.65 177.04,-388.46l158.47 -407.01c52.85,25.35 169.61,50.68 240.78,71.21 96.94,27.97 170.44,44.43 246.71,84.79 0,177.77 21.15,275.2 19.29,448.69 -3.99,373.17 96.99,291.7 433.26,502.73 376.45,236.24 288.54,256.74 674.36,-0.02 56.33,-37.48 84.66,-54.68 136.11,-97.88 171.36,-143.87 143.76,-120.54 329.89,108.02 35.75,43.88 162.06,196.96 162.06,247.43 0,47.42 -248.89,416.24 -289.92,470.57 -141.78,187.75 -50.92,272.07 53.22,565.61 19.42,54.75 26.28,91.38 47.45,147.55 21.57,57.24 27.7,86.52 45.64,149.36 34.81,121.9 56.24,182.55 162.42,227.57 53.71,22.78 561.28,153.9 624.68,155.31zm-13591.24 -4055.92c111.6,-53.56 241.52,-92.39 365.02,-141.97 97.24,-39.04 272.52,-122.42 375.96,-131.03 112.18,212.01 279.08,701.99 389.99,701.99l292.5 -19.5 0 838.48c0,64.61 62.48,46.25 -22.48,74.32 -22.77,7.52 -104.19,3.25 -133.44,3.64 -85.86,1.13 -182.95,22.62 -255.62,36.99 -170.5,33.73 -289.69,85.2 -438.4,146.59 -479.92,198.13 -919.33,710.64 -1132.64,1168.32 -432.15,927.25 -182.48,2218.38 786.05,2691.61 372.54,182.03 787.4,205.27 1196.53,109.95l0 838.48c-200.22,46.65 -236.58,307.48 -324.06,572.92 -15.23,46.21 -22.58,73.03 -39.46,116.54 -2.2,5.68 -24.19,52.87 -24.58,53.43 -48.11,68.41 -46.22,23.11 -54.41,43.01 -2.22,5.39 -10.66,4.54 -13.79,5.05 -3.13,0.51 -10.34,3 -14.28,3.39l-97.07 -10.76c-58.81,-6.99 -114.32,-0.14 -172.25,-4.67 -92.07,-7.2 -240.99,-30.3 -332.58,-37.92l-20.5 -447.49c-24.74,-311.39 -62.4,-312.21 -305.59,-415.9 -576.72,-245.87 -458.1,-352.43 -874.46,-25.16l-300.92 225.57c-145.73,-97.59 -174.37,-138.53 -287.78,-238.72 -84.58,-74.73 -214.03,-173.18 -277.71,-268.28 34.77,-51.93 80.55,-104.4 116.87,-156.12 89.41,-127.3 331.62,-401.49 331.62,-545.86 0,-111.94 -128.31,-368.64 -175.71,-487.28 -64.77,-162.09 -71.52,-355.31 -257.65,-385.84 -146.26,-24 -470.53,-27.43 -577.19,-66.29 -100.43,-36.59 -51.2,-118.02 -64.85,-247.15 -18.17,-171.87 -39.35,-426 2.92,-607.41 88.54,-42.48 300.26,-77.59 421.38,-105.11 445.17,-101.16 313.65,-97.32 453.59,-599.39 107.17,-384.51 201.53,-429.01 16.94,-616.4l-404.42 -453.57c65.09,-97.2 389.56,-600.3 448.49,-643.48 341.43,79.54 623.47,494.55 892.31,248.82 420.19,-384.07 585.66,-306.69 549.65,-735.28l-37.98 -488.52zm1423.47 -1891.47c0,190.45 25.44,339.73 8.13,515.32l11.37 1200.65c0,88.11 -175.45,78 -253.5,78 -81.57,0 -119.38,-180.67 -149.27,-240.72 -113.91,-228.81 -221.45,-238.23 -442.45,-337.54 -427.54,-192.09 -410.51,-51.23 -853.48,108.04 -354.96,127.62 -446.26,119.54 -446.26,489.72 0,142.24 62.08,484.77 -14.1,551.39 -9.49,8.31 -44.7,28.69 -59.61,37.89l-316.29 229.7c-67.14,-15.64 -118.24,-50.8 -178.23,-75.26 -661.45,-269.67 -590.77,-393.52 -991.67,211.83 -88.07,132.98 -312.07,361.39 -312.07,526.42 0,236.58 222.34,320.14 342.77,476.22 48.59,62.98 83.11,106.51 144.73,147.76l-195 721.49c-89.68,89.68 -664.38,34.11 -747.37,247.11 -38.63,99.15 -56.61,1006.91 24.64,1177.61 56.53,118.79 495.95,350.02 628.65,385.34 353.27,94.02 179.45,38.82 367.07,393.4 -38.48,57.47 -73.3,100.68 -113.34,159.66 -123.69,182.18 -315.65,364.74 -315.65,600.83 0,103.01 79.31,151.05 138.47,212.53 2.78,2.88 6.77,7.05 9.62,9.87 239.3,238.1 382.52,438.47 697.29,609.19 384.41,208.5 402.35,272.29 756.15,-10.05l309.44 -256.05c76.39,40.42 128.41,40.71 147.81,125.17 51.84,225.62 -49.91,509.2 149.93,669.06 36.51,29.2 94.71,59.83 132.36,82.14 148.18,87.79 258.9,188.35 447.77,215.22 197.45,28.09 609.63,77.89 762.99,22.79 185.22,-66.55 221.17,-310.99 276.55,-483.94 1.27,-3.93 14.39,-43.73 14.5,-44.01l37.55 1890.02c-0.02,428.24 67.09,773.93 355.31,1068.16 185.54,189.4 629.15,417.7 879.62,543.85 357.59,180.09 694.9,150.07 1085.45,84.39 796.71,-133.99 4103.31,-581.77 4524.22,-701.69 411.67,-117.29 769.93,-438.29 933.31,-821.66 236.13,-554.09 177.93,-938.31 177.93,-1577.02 404.75,94.29 229.4,256.62 383.8,591.19 59.86,129.72 147.72,151.78 286.48,201.01 121.21,43 235.51,101.37 361.25,127.57 136.41,28.44 663.08,-86.17 782.22,-159.01 115.53,-70.65 144.78,-161.45 155.17,-332.32 10.48,-172.49 39.55,-279.45 39.55,-467.44 342.86,-229.59 290.25,-240.36 519.74,-129.75 115.76,55.79 511.13,227.24 630.73,227.24 165.14,0 662.99,-733.01 662.99,-838.48 0,-154.52 -90.23,-258.13 -157.11,-369.38 -278.64,-463.47 -230.8,-181.22 -13.05,-814.77 56.52,-164.45 40.8,-164.56 226.13,-222.36 745.22,-232.41 626.52,-214.92 626.52,-991.94 0,-415.31 -268.35,-406.29 -585.35,-487.14 -235.84,-60.15 -217.13,-36.4 -289.67,-256.31 -144.06,-436.77 -215.51,-340.92 36.34,-719.22 292.24,-438.97 200.41,-474.56 -119.49,-874.6 -162.26,-202.91 -168.09,-229.21 -413.56,-346.93 -471.83,-226.28 -392.52,-223.19 -809.47,93.51 -55.25,41.96 -77.59,62.1 -139.25,94.73l-78.01 -58.5c0,-126.23 -12.34,-331.07 -30.29,-457.19 -63.5,-446.49 -184.39,-291.7 -947.18,-554.29 -482.77,-166.19 -495.73,145.6 -653.78,472.21 -16.27,33.64 -24.06,44.64 -39.25,77.75 -18.42,40.16 -21.43,62.04 -38.53,97.97 -51.68,108.61 -291.05,101.25 -396.93,110.06 0,-1215.48 0,-2430.95 0,-3646.43 0,-808.93 -122.63,-1223.68 -702.6,-1559.35 -291.47,-168.68 -743.3,-293.11 -1110.86,-293.11 -449.94,0 -1475.12,134.14 -1916.36,189.59l-953.59 99.39c-467.27,52.53 -1490.88,176.54 -1906.89,199.07 -590.76,31.99 -1063.35,286.88 -1276.87,829.09 -71.21,180.83 -102.53,484.4 -93.6,683.35 5.67,126.19 -14.57,135.71 -14.57,241.96z"/>
   <path class="fil0" d="M8539.47 21084.38c-136.98,0 -246.83,-64.93 -327.8,-159.7 -79.83,-93.44 -120.69,-219.01 -120.69,-386.29l0 -10412.81c0,-286.48 129.37,-461.6 331.18,-546.29 84.95,-35.65 255.33,-51.11 370.8,-58.19 76.46,-4.69 358.21,-45.68 407.49,-38.28 127.96,19.25 171.98,249.57 543.35,335.43 266.73,61.66 1206.07,-63.01 1572.98,-113.3 538.64,-73.82 906,-15.26 1239.43,-515.53 81.72,-122.63 63.8,-96.54 329.99,-118.5 340.54,-28.1 723.17,-186.93 723.17,567.18l0 9983.81c0,274.7 -59.59,458.13 -199.42,600.05 -183.92,186.66 -307.41,188.69 -589,229.99 -1283.53,188.23 -2646.31,419.47 -3912.01,592.41 -127.93,17.49 -225.47,40.02 -369.47,40.02zm1403.97 -11563.28c-288.78,0 -392.08,-154.55 -550.01,-307.98 -100.11,-97.26 -190.07,-56.12 -345.18,-41.23 -121.71,11.69 -250.97,25.79 -386.06,42.94 -356.72,45.26 -613.18,151.85 -784.89,482.58 -42.17,81.22 -78.82,226.23 -78.82,350.18l0 10549.3c0,473.04 292.05,763.75 707.4,815.12 111.56,13.8 548.9,-69.03 663.11,-88.11l1994.7 -306.25c448.16,-68.78 894.17,-144.99 1335.22,-205.25l660.93 -99.56c222.95,-48.24 334.5,-147.56 474.2,-286.28 341.52,-339.14 267.83,-808.55 267.83,-1272.65l-2.88 -8965.67c-5.11,-60.51 -17.57,-89.52 -17.62,-179.57l0.22 -331.45c-0.79,-174.93 22.93,-174.12 -2.17,-348.05 -32.61,-225.95 -117.89,-374.72 -266.67,-493.94 -190.24,-152.46 -325.69,-133.94 -594.09,-99.84 -650.23,82.59 -463.83,-3.54 -770.89,379.58 -47.11,58.78 -148.58,130.71 -229.16,160.85 -178.78,66.85 -473.85,76.85 -676.95,103.02l-1035.95 114.53c-130.67,17.81 -224.18,27.73 -362.27,27.73z"/>
   <path class="fil0" d="M10723.43 15955.98c0,123.92 123.06,240.3 246.93,227.03 160.62,-17.21 197.3,-139.84 233.56,-253.53 83.13,-260.6 144.01,-519.75 219.12,-775.36l333.87 -1148.11c29.17,-104.44 75.72,-303.97 116.99,-389.99 118.14,79.11 257.93,267.89 385.12,394.87 100.28,100.11 328.39,305.33 394.87,404.61 -22.1,82.79 -190.65,250.44 -247.46,318.04l-663.36 799.11c-250.34,302.47 109.26,647.4 398.09,300.58l1005.36 -1178.59c362.98,-368.83 -96.17,-520.72 -556.88,-1071.87l-551.24 -560.24c-83.52,-70.46 -99.95,-128 -242.49,-128 -169.06,0 -231.99,109.32 -271.04,235.96 -201.46,653.36 -382.64,1351.44 -579.95,2013.5 -48.53,162.85 -221.49,690.44 -221.49,811.99z"/>
   <path class="fil0" d="M8695.46 14844.49c0,149.44 190.34,307.96 301.29,400.71l83.87 72.13c40.95,38.74 66.06,69.67 106.97,107.52 215.28,199.18 589.75,508.47 779.83,702.14 229.12,233.42 483.01,54.48 483.01,-132.02 0,-177.93 -125.41,-252.15 -219.37,-346.12 -48.95,-48.95 -86.18,-90.42 -136.25,-136.73l-448.82 -409.17c-100.38,-101.61 -240.46,-207.65 -287.54,-277.95 78.7,-52.71 935.77,-1040.5 1116.64,-1223.32 209.1,-211.37 110.13,-492.65 -200.16,-492.65 -103.62,0 -186.85,113.7 -233.99,175.49 -60.42,79.2 -124.24,132.34 -192.1,217.4 -116.95,146.6 -657.55,686.45 -794.15,863.32 -95.12,123.14 -359.23,306.54 -359.23,479.25z"/>
   <path class="fil0" d="M10001.94 8975.11c0,226.17 182.49,197.4 400.94,166.94 200.96,-28.02 1329.95,-133.48 1399.27,-160.7 190.15,-74.68 160.65,-337.74 -25.74,-337.74 -183.53,0 -314.54,24.3 -485.7,40.8l-948.84 104.13c-174.27,24.15 -339.93,-5.83 -339.93,186.57z"/>
  </g>
 </g>
</svg>
